<?xml version="1.0" encoding="UTF-8" standalone="no"?>
<!-- Created with Inkscape (http://www.inkscape.org/) -->

<svg
   width="80cm"
   height="20cm"
   viewBox="0 0 800 200"
   version="1.1"
   id="svg5"
   sodipodi:docname="logo.svg"
   inkscape:version="1.2.2 (b0a8486, 2022-12-01)"
   xmlns:inkscape="http://www.inkscape.org/namespaces/inkscape"
   xmlns:sodipodi="http://sodipodi.sourceforge.net/DTD/sodipodi-0.dtd"
   xmlns:xlink="http://www.w3.org/1999/xlink"
   xmlns="http://www.w3.org/2000/svg"
   xmlns:svg="http://www.w3.org/2000/svg"
   xmlns:rdf="http://www.w3.org/1999/02/22-rdf-syntax-ns#"
   xmlns:cc="http://creativecommons.org/ns#"
   xmlns:dc="http://purl.org/dc/elements/1.1/">
  <title
     id="title18513">Sherlock Logo</title>
  <script
     id="inkwebjs"
     type="text/javascript"><![CDATA[
/* inkweb.js - InkWebEffect:AutoUpdate */
/*
**  InkWeb - Inkscape's Javscript features for the open vector web
**
**  Copyright (C) 2009 Aurelio A. Heckert, aurium (a) gmail dot com
**
**  ********* Bugs and New Fetures *************************************
**   If you found any bug on this script or if you want to propose a
**   new feature, please report it in the inkscape bug tracker
**   https://inkscape.org/report .
**  ********************************************************************
**
**  This program is free software: you can redistribute it and/or modify
**  it under the terms of the GNU Lesser General Public License as published
**  by the Free Software Foundation, either version 3 of the License, or
**  (at your option) any later version.
**
**  This program is distributed in the hope that it will be useful,
**  but WITHOUT ANY WARRANTY; without even the implied warranty of
**  MERCHANTABILITY or FITNESS FOR A PARTICULAR PURPOSE.  See the
**  GNU Lesser General Public License for more details.
**
**  You should have received a copy of the GNU Lesser General Public License
**  along with this program.  If not, see <http://www.gnu.org/licenses/>.
*/

var InkWeb = {

  version: 0.04,

  NS: {
    svg:      "http://www.w3.org/2000/svg",
    sodipodi: "http://sodipodi.sourceforge.net/DTD/sodipodi-0.dtd",
    inkscape: "http://www.inkscape.org/namespaces/inkscape",
    cc:       "http://creativecommons.org/ns#",
    dc:       "http://purl.org/dc/elements/1.1/",
    rdf:      "http://www.w3.org/1999/02/22-rdf-syntax-ns#",
    xlink:    "http://www.w3.org/1999/xlink",
    xml:      "http://www.w3.org/XML/1998/namespace"
  }

};

InkWeb.el = function (tag, attributes) {
  // A helper to create SVG elements
  var element = document.createElementNS( this.NS.svg, tag );
  for ( var att in attributes ) {
    switch ( att ) {
      case "parent":
        attributes.parent.appendChild( element );
        break;
      case "text":
        element.appendChild( document.createTextNode( attributes.text ) );
        break;
      default:
        element.setAttribute( att, attributes[att] );
    }
  }
  return element;
}

InkWeb.reGetStyleAttVal = function (att) {
  return new RegExp( "(^|.*;)[ ]*"+ att +":([^;]*)(;.*|$)" )
}

InkWeb.getStyle = function (el, att) {
  // This method is needed because el.style is only working
  // to HTML style in the Firefox 3.0
  if ( typeof(el) == "string" )
    el = document.getElementById(el);
  var style = el.getAttribute("style");
  var match = this.reGetStyleAttVal(att).exec(style);
  if ( match ) {
    return match[2];
  } else {
    return false;
  }
}

InkWeb.setStyle = function (el, att, val) {
  if ( typeof(el) == "string" )
    el = document.getElementById(el);
  var style = el.getAttribute("style");
  re = this.reGetStyleAttVal(att);
  if ( re.test(style) ) {
    style = style.replace( re, "$1"+ att +":"+ val +"$3" );
  } else {
    style += ";"+ att +":"+ val;
  }
  el.setAttribute( "style", style );
  return val
}

InkWeb.transmitAtt = function (conf) {
  conf.att = conf.att.split( /\s+/ );
  if ( typeof(conf.from) == "string" )
    conf.from = document.getElementById( conf.from );
  if ( ! conf.to.join )
    conf.to = [ conf.to ];
  for ( var toEl,elN=0; toEl=conf.to[elN]; elN++ ) {
    if ( typeof(toEl) == "string" )
      toEl = document.getElementById( toEl );
    for ( var i=0; i<conf.att.length; i++ ) {
      var val = this.getStyle( conf.from, conf.att[i] );
      if ( val ) {
        this.setStyle( toEl, conf.att[i], val );
      } else {
        val = conf.from.getAttribute(conf.att[i]);
        toEl.setAttribute( conf.att[i], val );
      }
    }
  }
}

InkWeb.goto = function (conf) {
  if ( typeof(conf.from) == "string" )
    conf.from = document.getElementById( conf.from );
  if ( ! conf.to )
    conf.to = conf.to ;
  if ( typeof(toEl) == "string" )
      toEl = document.getElementById( toEl );
  toEl = document.getElementById( conf.to );
  document.getElementsByTagName("svg")[0].viewBox.baseVal.x = toEl.getAttribute("x");
  document.getElementsByTagName("svg")[0].viewBox.baseVal.y = toEl.getAttribute("y");
}

InkWeb.setAtt = function (conf) {
  if ( ! conf.el.join )
    conf.to = [ conf.el ];
  conf.att = conf.att.split( /\s+/ );
  conf.val = conf.val.split( /\s+/ );
  for ( var el,elN=0; el=conf.el[elN]; elN++ ) {
    if ( typeof(el) == "string" )
      el = document.getElementById( el );
    for ( var att,i=0; att=conf.att[i]; i++ ) {
      if (
           att == "width"  ||
           att == "height" ||
           att == "x"  ||
           att == "y"  ||
           att == "cx" ||
           att == "cy" ||
           att == "r"  ||
           att == "rx" ||
           att == "ry" ||
           att == "transform"
         ) {
        el.setAttribute( att, conf.val[i] );
      } else {
        this.setStyle( el, att, conf.val[i] );
      }
    }
  }
}

InkWeb.moveElTo = function (startConf) {
  if ( typeof(startConf) == "string" ) {
    // startConf may be only a element Id, to timeout recursive calls.
    var el = document.getElementById( startConf );
  } else {
    if ( typeof(startConf.el) == "string" )
      startConf.el = document.getElementById( startConf.el );
    var el = startConf.el;
  }
  if ( ! el.inkWebMoving ) {
    el.inkWebMoving = {
      step: 0
    };
  }
  var conf = el.inkWebMoving;
  if ( conf.step == 0 ) {
    conf.x = startConf.x;
    conf.y = startConf.y;
    // dur : duration of the animation in seconds
    if ( startConf.dur ) { conf.dur = startConf.dur }
    else { conf.dur = 1 }
    // steps : animation steps in a second
    if ( startConf.stepsBySec ) { conf.stepsBySec = startConf.stepsBySec }
    else { conf.stepsBySec = 16 }
    conf.sleep = Math.round( 1000 / conf.stepsBySec );
    conf.steps = conf.dur * conf.stepsBySec;
    var startPos = el.getBBox();
    conf.xInc = ( conf.x - startPos.x ) / conf.steps;
    conf.yInc = ( conf.y - startPos.y ) / conf.steps;
    conf.transform = el.transform.baseVal.consolidate();
    if ( ! conf.transform ) {
      conf.transform = el.ownerSVGElement.createSVGTransform();
    }
    el.transform.baseVal.clear();
    el.transform.baseVal.appendItem(conf.transform);
  }
  if ( conf.step < conf.steps ) {
    conf.step++;
    conf.transform.matrix.e += conf.xInc;
    conf.transform.matrix.f += conf.yInc;
    try{ el.ownerSVGElement.forceRedraw() }
    catch(e){ this.log(e, "this "+el.ownerSVGElement+" has no forceRedraw().") }
    conf.timeout = setTimeout( 'InkWeb.moveElTo("'+el.id+'")', conf.sleep );
  } else {
    delete el.inkWebMoving;
  }
}

InkWeb.moveViewbox = function (conf) {
  if ( typeof(conf.from) == "string" )
    conf.from = document.getElementById( conf.from );
  if ( ! conf.to )
    conf.to = conf.from ;
  if ( typeof(conf.to) == "string" )
      conf.to = document.getElementById( conf.to );
  bbox = conf.to.getBBox();
  vbox = document.getElementsByTagName("svg")[0].viewBox;
  document.getElementsByTagName("svg")[0].viewBox.baseVal.x=bbox.x;
  document.getElementsByTagName("svg")[0].viewBox.baseVal.y=bbox.y;
  document.getElementsByTagName("svg")[0].viewBox.baseVal.width=bbox.width;
  document.getElementsByTagName("svg")[0].viewBox.baseVal.height=bbox.height;
  document.getElementsByTagName("svg")[0].viewBox.animVal.x=bbox.x;
  document.getElementsByTagName("svg")[0].viewBox.animVal.y=bbox.y;
  document.getElementsByTagName("svg")[0].viewBox.animVal.width=bbox.width;
  document.getElementsByTagName("svg")[0].viewBox.animVal.heigt=bbox.height;
  vbox = document.getElementsByTagName("svg")[0].viewBox;
}

InkWeb.log = function () { /* requires inkweb-debug.js, not included in Inkscape */ }
]]></script>
  <sodipodi:namedview
     id="namedview7"
     pagecolor="#ffffff"
     bordercolor="#000000"
     borderopacity="0.25"
     inkscape:showpageshadow="2"
     inkscape:pageopacity="0.0"
     inkscape:pagecheckerboard="false"
     inkscape:deskcolor="#d1d1d1"
     inkscape:document-units="mm"
     showgrid="false"
     inkscape:zoom="1.4499353"
     inkscape:cx="3003.2374"
     inkscape:cy="528.64426"
     inkscape:window-width="1920"
     inkscape:window-height="1027"
     inkscape:window-x="0"
     inkscape:window-y="25"
     inkscape:window-maximized="0"
     inkscape:current-layer="text2917" />
  <defs
     id="defs2">
    <linearGradient
       id="linearGradient12060">
      <stop
         style="stop-color:#01a995;stop-opacity:1;"
         offset="0"
         id="stop12056" />
      <stop
         style="stop-color:#134f44;stop-opacity:1;"
         offset="1"
         id="stop12058" />
    </linearGradient>
    <linearGradient
       id="linearGradient3158">
      <stop
         style="stop-color:#01a995;stop-opacity:1;"
         offset="0"
         id="stop12043" />
      <stop
         style="stop-color:#134f44;stop-opacity:1;"
         offset="1"
         id="stop12045" />
    </linearGradient>
    <linearGradient
       id="linearGradient3158-1">
      <stop
         style="stop-color:#01a995;stop-opacity:1;"
         offset="0"
         id="stop3154" />
      <stop
         style="stop-color:#134f44;stop-opacity:1;"
         offset="1"
         id="stop3156" />
    </linearGradient>
    <rect
       x="167.33086"
       y="417.11459"
       width="471.67899"
       height="306.77322"
       id="rect2911" />
    <linearGradient
       inkscape:collect="always"
       xlink:href="#linearGradient3158"
       id="linearGradient10446"
       x1="60.546314"
       y1="139.41341"
       x2="60.700928"
       y2="158.43011"
       gradientUnits="userSpaceOnUse" />
    <inkscape:path-effect
       effect="fill_between_many"
       method="originald"
       linkedpaths="#text2917,0,1"
       id="path-effect11191"
       is_visible="true"
       lpeversion="0"
       join="true"
       close="true"
       autoreverse="true" />
    <linearGradient
       inkscape:collect="always"
       xlink:href="#linearGradient12060"
       id="linearGradient11311"
       x1="95.639175"
       y1="139.29167"
       x2="95.733658"
       y2="158.70517"
       gradientUnits="userSpaceOnUse" />
    <linearGradient
       inkscape:collect="always"
       xlink:href="#linearGradient12060"
       id="linearGradient16145"
       gradientUnits="userSpaceOnUse"
       x1="95.639175"
       y1="139.29167"
       x2="95.733658"
       y2="158.70517" />
    <linearGradient
       inkscape:collect="always"
       xlink:href="#linearGradient12060"
       id="linearGradient16147"
       gradientUnits="userSpaceOnUse"
       x1="95.639175"
       y1="139.29167"
       x2="95.733658"
       y2="158.70517" />
    <linearGradient
       inkscape:collect="always"
       xlink:href="#linearGradient12060"
       id="linearGradient16149"
       gradientUnits="userSpaceOnUse"
       x1="95.639175"
       y1="139.29167"
       x2="95.733658"
       y2="158.70517" />
    <linearGradient
       inkscape:collect="always"
       xlink:href="#linearGradient12060"
       id="linearGradient16151"
       gradientUnits="userSpaceOnUse"
       x1="95.639175"
       y1="139.29167"
       x2="95.733658"
       y2="158.70517" />
    <linearGradient
       inkscape:collect="always"
       xlink:href="#linearGradient12060"
       id="linearGradient16153"
       gradientUnits="userSpaceOnUse"
       x1="95.639175"
       y1="139.29167"
       x2="95.733658"
       y2="158.70517" />
    <linearGradient
       inkscape:collect="always"
       xlink:href="#linearGradient12060"
       id="linearGradient16155"
       gradientUnits="userSpaceOnUse"
       x1="95.639175"
       y1="139.29167"
       x2="95.733658"
       y2="158.70517" />
    <linearGradient
       inkscape:collect="always"
       xlink:href="#linearGradient12060"
       id="linearGradient16157"
       gradientUnits="userSpaceOnUse"
       x1="95.639175"
       y1="139.29167"
       x2="95.733658"
       y2="158.70517" />
    <linearGradient
       inkscape:collect="always"
       xlink:href="#linearGradient12060"
       id="linearGradient16159"
       gradientUnits="userSpaceOnUse"
       x1="95.639175"
       y1="139.29167"
       x2="95.733658"
       y2="158.70517" />
    <linearGradient
       inkscape:collect="always"
       xlink:href="#linearGradient3158"
       id="linearGradient16161"
       gradientUnits="userSpaceOnUse"
       x1="60.546314"
       y1="139.41341"
       x2="60.700928"
       y2="158.43011" />
    <linearGradient
       inkscape:collect="always"
       xlink:href="#linearGradient3158"
       id="linearGradient16163"
       gradientUnits="userSpaceOnUse"
       x1="60.546314"
       y1="139.41341"
       x2="60.700928"
       y2="158.43011" />
  </defs>
  <g
     inkscape:label="Layer 1"
     inkscape:groupmode="layer"
     id="layer1"
     transform="translate(-60.694881,-139.62153)">
    <text
       xml:space="preserve"
       transform="scale(0.26458333)"
       id="text2909"
       style="white-space:pre;shape-inside:url(#rect2911);display:inline;fill:#000000" />
    <path
       inkscape:original-d="M 0,0"
       inkscape:path-effect="#path-effect11191"
       d="M 0,0"
       id="path11193"
       class="UnoptimicedTransforms" />
    <g
       aria-label="sherlock"
       id="text2917"
       style="font-size:3.175px;letter-spacing:-1.5875px;fill:url(#linearGradient10446);stroke-width:0.264583"
       class="UnoptimicedTransforms">
      <g
         id="g13525"
         clip-path="none"
         onclick="InkWeb.moveViewbox({from:this, to:'use13529'});"
         style="fill:url(#linearGradient16163)"
         transform="matrix(10.353338,0,0,10.353338,-566.60484,-1305.0149)">
        <g
           inkscape:label="Clip"
           id="g13523"
           style="fill:url(#linearGradient16161)">
          <g
             id="g11303"
             style="mix-blend-mode:normal;fill:url(#linearGradient11311);fill-opacity:1">
            <path
               d="m 64.174681,158.51913 q -1.5494,0 -2.4384,-0.6858 -0.8636,-0.6858 -1.0414,-1.9304 0.1016,-0.4572 0.4064,-0.7366 0.3302,-0.2794 0.7874,-0.2794 1.1938,0 1.524,1.3716 l 0.2794,1.2446 q 0.0508,0 0.127,0 0.0762,0 0.127,0 1.1176,0 1.7526,-0.5334 0.635,-0.5334 0.635,-1.397 0,-0.6096 -0.3556,-1.1684 -0.3302,-0.5588 -1.3462,-1.3208 -1.016,-0.8128 -1.651,-1.6256 -0.635,-0.8128 -0.635,-2.032 0,-1.0414 0.5334,-1.905 0.5334,-0.8636 1.524,-1.3716 0.9906,-0.508 2.3622,-0.508 2.8448,0 3.3782,2.3622 -0.2032,0.9652 -1.1938,0.9652 -0.4826,0 -0.889,-0.3302 -0.4064,-0.3302 -0.6604,-1.0414 l -0.3048,-0.9398 h -0.0508 q -1.1684,0 -1.651,0.5842 -0.4826,0.5842 -0.4826,1.3462 0,0.7874 0.4572,1.3716 0.4572,0.5588 1.4986,1.3462 1.143,0.889 1.6256,1.6256 0.4826,0.7366 0.4826,1.8542 0,1.5494 -1.27,2.6416 -1.2446,1.0922 -3.5306,1.0922 z"
               style="font-style:italic;font-weight:600;font-size:25.4px;font-family:'Source Serif 4';-inkscape-font-specification:'Source Serif 4, Semi-Bold Italic';fill:url(#linearGradient16145);fill-opacity:1"
               id="path11174" />
            <path
               d="m 69.368919,158.36673 -0.3048,-0.254 2.3622,-11.43 c 0.169333,-0.77893 0.3302,-1.5494 0.4826,-2.3114 0.1524,-0.762 0.287867,-1.53247 0.4064,-2.3114 l -2.032,-0.2286 0.1016,-0.8382 4.8514,-1.3716 0.3048,0.2794 -1.778,8.5344 c 0.846667,-0.82973 1.735666,-1.4986 2.666999,-2.0066 0.948267,-0.52493 1.811867,-0.7874 2.5908,-0.7874 0.541867,0 0.973667,0.16087 1.2954,0.4826 0.338667,0.32173 0.508,0.80433 0.508,1.4478 0,0.37253 -0.04233,0.75353 -0.127,1.143 -0.06773,0.38947 -0.1524,0.7874 -0.254,1.1938 l -1.1684,4.7752 c -0.06773,0.3048 -0.135467,0.5588 -0.2032,0.762 -0.0508,0.2032 -0.0762,0.37253 -0.0762,0.508 0,0.3556 0.1524,0.5334 0.4572,0.5334 0.5588,0 1.911904,-1.10296 2.809371,-2.23749 l 0.6858,0.508 c -0.321733,0.52493 -1.353104,1.57709 -1.844171,2.08509 -0.474133,0.49107 -0.999067,0.89747 -1.5748,1.2192 -0.575733,0.3048 -1.1938,0.4572 -1.8542,0.4572 -0.508,0 -0.905933,-0.11853 -1.1938,-0.3556 -0.270933,-0.23707 -0.4064,-0.56727 -0.4064,-0.9906 0,-0.33867 0.04233,-0.67733 0.127,-1.016 0.08467,-0.33867 0.186267,-0.7366 0.3048,-1.1938 l 1.016,-4.1402 c 0.1016,-0.42333 0.186267,-0.8128 0.254,-1.1684 0.06773,-0.37253 0.1016,-0.66887 0.1016,-0.889 0,-0.37253 -0.06773,-0.62653 -0.2032,-0.762 -0.135467,-0.1524 -0.321733,-0.2286 -0.5588,-0.2286 -0.423333,0 -0.931333,0.16087 -1.523999,0.4826 -0.592667,0.3048 -1.27,0.77893 -2.032,1.4224 l -0.6604,3.0734 c -0.220133,0.98213 -0.414867,1.905 -0.5842,2.7686 -0.1524,0.8636 -0.296333,1.74413 -0.4318,2.6416 z"
               style="font-style:italic;font-weight:600;font-size:25.4px;font-family:'Source Serif 4';-inkscape-font-specification:'Source Serif 4, Semi-Bold Italic';fill:url(#linearGradient16147);fill-opacity:1"
               id="path11176"
               sodipodi:nodetypes="cccscccccccscsccccssccccscsscccscscccccc" />
            <path
               d="m 88.406178,146.86053 c -0.372533,0 -0.778933,0.1524 -1.2192,0.4572 -0.423333,0.3048 -0.829733,0.72813 -1.2192,1.27 -0.389467,0.52493 -0.719667,1.13453 -0.9906,1.8288 -0.270933,0.69427 -0.296026,2.05601 -0.346826,2.81801 1.286934,-0.4064 2.249209,-1.21719 2.977342,-1.70826 0.745067,-0.508 1.179484,-1.29602 1.484284,-1.82095 0.321733,-0.52493 0.4826,-1.016 0.4826,-1.4732 0,-0.44027 -0.110067,-0.77893 -0.3302,-1.016 -0.220133,-0.23707 -0.499533,-0.3556 -0.8382,-0.3556 z m -2.4892,11.6586 c -1.202267,0 -2.192867,-0.39793 -2.9718,-1.1938 -0.762,-0.8128 -1.143,-1.99813 -1.143,-3.556 0,-1.0668 0.1778,-2.0828 0.5334,-3.048 0.372533,-0.98213 0.880533,-1.8542 1.524,-2.6162 0.6604,-0.762 1.413933,-1.36313 2.2606,-1.8034 0.8636,-0.44027 1.786467,-0.6604 2.7686,-0.6604 0.9652,0 1.710267,0.2286 2.2352,0.6858 0.524933,0.44027 0.7874,1.05833 0.7874,1.8542 0,0.6096 -0.245533,1.2446 -0.7366,1.905 -0.491067,0.6604 -1.18795,1.56695 -2.271684,2.17655 -1.083733,0.6096 -2.477808,1.522 -4.272742,2.01306 0.08467,0.93134 0.211359,0.98352 0.651626,1.42379 0.4572,0.42333 1.049867,0.635 1.778,0.635 0.778933,0 1.4478,-0.19473 2.0066,-0.5842 0.575733,-0.38947 1.049867,-0.8128 1.4224,-1.27 l 0.6604,0.4826 c -0.3556,0.6096 -0.795867,1.18533 -1.3208,1.7272 -0.524933,0.54187 -1.1176,0.98213 -1.778,1.3208 -0.643467,0.33867 -1.354667,0.508 -2.1336,0.508 z"
               style="font-style:italic;font-weight:600;font-size:25.4px;font-family:'Source Serif 4';-inkscape-font-specification:'Source Serif 4, Semi-Bold Italic';fill:url(#linearGradient16149);fill-opacity:1"
               id="path11178"
               sodipodi:nodetypes="sccscccsssscscccscsssccscccscs" />
            <path
               d="m 91.644656,158.11273 2.1082,-10.0584 -2.643889,-0.2286 0.127,-0.8382 5.056889,-1.3716 0.4064,0.3302 -0.6096,3.6576 c 0.372533,-0.72813 0.778933,-1.38853 1.2192,-1.9812 0.440267,-0.59267 0.897467,-1.0668 1.3716,-1.4224 0.474133,-0.37253 0.948268,-0.5588 1.422404,-0.5588 0.4064,0 0.77047,0.0847 1.0922,0.254 0.33867,0.1524 0.59267,0.39793 0.762,0.7366 0,0.508 -0.13547,0.93133 -0.4064,1.27 -0.254,0.33867 -0.62653,0.508 -1.1176,0.508 -0.558803,0 -1.126071,-0.28787 -1.701804,-0.8636 -0.6604,0.62653 -1.236133,1.3208 -1.7272,2.0828 -0.491067,0.74507 -0.931333,1.524 -1.3208,2.3368 l -0.1778,0.8128 c -0.186267,0.89747 -0.364067,1.79493 -0.5334,2.6924 -0.169333,0.88053 -0.338667,1.778 -0.508,2.6924 l -2.4892,0.2032 z"
               style="font-style:italic;font-weight:600;font-size:25.4px;font-family:'Source Serif 4';-inkscape-font-specification:'Source Serif 4, Semi-Bold Italic';fill:url(#linearGradient16151);fill-opacity:1"
               id="path11180"
               sodipodi:nodetypes="cccccccscscccscccccccc" />
            <path
               d="m 102.27449,158.51913 c -0.49107,0 -0.89747,-0.13547 -1.2192,-0.4064 -0.32173,-0.27093 -0.4826,-0.66887 -0.4826,-1.1938 0,-0.254 0.0254,-0.56727 0.0762,-0.9398 0.0677,-0.37253 0.16087,-0.85513 0.2794,-1.4478 l 1.5748,-7.8486 c 0.16933,-0.762 0.3302,-1.524 0.4826,-2.286 0.1524,-0.77893 0.28787,-1.55787 0.4064,-2.3368 l -2.032,-0.2286 0.127,-0.8382 4.8514,-1.3716 0.3302,0.2794 -3.048,14.7574 c -0.0677,0.28787 -0.11853,0.54187 -0.1524,0.762 -0.0339,0.2032 -0.0508,0.37253 -0.0508,0.508 0,0.16933 0.0508,0.3048 0.1524,0.4064 0.11853,0.1016 0.24553,0.1524 0.381,0.1524 0.47413,0 1.71256,-0.61191 2.64389,-1.74644 l 0.6858,0.508 c -0.33867,0.52493 -1.27229,1.08604 -1.72949,1.59404 -0.44027,0.49107 -0.93133,0.89747 -1.4732,1.2192 -0.54187,0.3048 -1.143,0.4572 -1.8034,0.4572 z"
               style="font-style:italic;font-weight:600;font-size:25.4px;font-family:'Source Serif 4';-inkscape-font-specification:'Source Serif 4, Semi-Bold Italic';fill:url(#linearGradient16153);fill-opacity:1"
               id="path11182"
               sodipodi:nodetypes="ssscccccccccccscsccccs" />
            <path
               d="m 110.49133,158.51913 q -1.27,0 -2.3114,-0.508 -1.0414,-0.5334 -1.651,-1.5494 -0.6096,-1.0414 -0.6096,-2.5908 0,-1.651 0.5334,-3.1242 0.5588,-1.4986 1.524,-2.6416 0.9652,-1.143 2.2352,-1.8034 1.27,-0.6604 2.7432,-0.6604 1.9558,0 3.2258,1.1684 1.27,1.143 1.27,3.4798 0,1.6256 -0.5334,3.0988 -0.5334,1.4732 -1.4986,2.6416 -0.9398,1.143 -2.2098,1.8288 -1.2446,0.6604 -2.7178,0.6604 z m 0.3048,-1.1938 q 0.8382,0 1.524,-0.635 0.7112,-0.635 1.2192,-1.6764 0.508,-1.0668 0.762,-2.3368 0.2794,-1.2954 0.2794,-2.5908 0,-1.8034 -0.5334,-2.5146 -0.5334,-0.7366 -1.397,-0.7366 -0.8382,0 -1.5494,0.6096 -0.6858,0.6096 -1.2192,1.651 -0.508,1.016 -0.8128,2.3114 -0.2794,1.2954 -0.2794,2.6416 0,1.8034 0.5588,2.54 0.5842,0.7366 1.4478,0.7366 z"
               style="font-style:italic;font-weight:600;font-size:25.4px;font-family:'Source Serif 4';-inkscape-font-specification:'Source Serif 4, Semi-Bold Italic';fill:url(#linearGradient16155);fill-opacity:1"
               id="path11184" />
            <path
               d="m 121.45142,158.51913 c -1.20227,0 -2.1844,-0.4064 -2.9464,-1.2192 -0.762,-0.82973 -1.143,-2.01507 -1.143,-3.556 0,-1.08373 0.18627,-2.1082 0.5588,-3.0734 0.37253,-0.98213 0.88053,-1.84573 1.524,-2.5908 0.6604,-0.762 1.40547,-1.35467 2.2352,-1.778 0.84667,-0.44027 1.73567,-0.6604 2.667,-0.6604 0.84667,0 1.54093,0.19473 2.0828,0.5842 0.54187,0.37253 0.89747,0.88053 1.0668,1.524 -0.0339,0.38947 -0.19473,0.70273 -0.4826,0.9398 -0.27093,0.22013 -0.5842,0.3302 -0.9398,0.3302 -0.3556,0 -0.6604,-0.11007 -0.9144,-0.3302 -0.254,-0.23707 -0.49107,-0.508 -0.7112,-0.8128 l -0.762,-1.1176 c -0.7112,0.3556 -1.33773,0.87207 -1.8796,1.5494 -0.52493,0.6604 -0.9398,1.4224 -1.2446,2.286 -0.28787,0.84667 -0.4318,1.71873 -0.4318,2.6162 0,1.0668 0.254,1.8542 0.762,2.3622 0.508,0.508 1.17687,0.762 2.0066,0.762 0.59267,0 1.15993,-0.1778 1.7018,-0.5334 0.5588,-0.37253 2.03196,-2.0181 2.4553,-2.5261 l 0.635,0.4826 c -0.33867,0.62653 -1.7695,2.41603 -2.3283,2.9579 -0.54187,0.54187 -1.15147,0.98213 -1.8288,1.3208 -0.6604,0.32173 -1.35467,0.4826 -2.0828,0.4826 z"
               style="font-style:italic;font-weight:600;font-size:25.4px;font-family:'Source Serif 4';-inkscape-font-specification:'Source Serif 4, Semi-Bold Italic';fill:url(#linearGradient16157);fill-opacity:1"
               id="path11186"
               sodipodi:nodetypes="scscccscccscccccssscccccs" />
            <path
               d="m 125.81173,158.11273 2.3622,-11.43 q 0.2286,-1.1684 0.4572,-2.3114 0.2286,-1.143 0.4064,-2.3114 l -2.032,-0.2286 0.127,-0.8382 4.8006,-1.3716 0.3302,0.2794 -2.286,11.0744 6.4516,-5.207 q 0.5842,0.0508 0.9398,0.4826 0.3556,0.4064 0.3556,0.9652 0,0.5334 -0.4318,0.9398 -0.4318,0.381 -1.397,0.7366 l -5.7912,2.6416 0.8636,0.1016 q 1.1684,0.1778 1.905,0.8128 0.762,0.635 1.2192,1.6764 l 0.762,1.7018 q 0.3556,0.8128 0.6858,1.0922 0.3302,0.2794 0.8636,0.3302 l 1.016,0.1016 -0.127,0.8128 q -1.0668,0.3556 -2.1082,0.3556 -1.0414,0 -1.8034,-0.4318 -0.7366,-0.4318 -1.27,-1.8288 l -0.7874,-2.1082 q -0.4064,-1.0414 -0.7112,-1.4478 -0.2794,-0.4064 -0.8636,-0.5842 l -0.127,0.635 q -0.3048,1.4732 -0.5588,2.7686 -0.2286,1.2954 -0.4572,2.6416 l -2.4892,0.2032 z"
               style="font-style:italic;font-weight:600;font-size:25.4px;font-family:'Source Serif 4';-inkscape-font-specification:'Source Serif 4, Semi-Bold Italic';fill:url(#linearGradient16159);fill-opacity:1"
               id="path11188" />
          </g>
        </g>
      </g>
      <use
         x="0"
         y="0"
         xlink:href="#g13523"
         id="use13529"
         style="fill:#000000;fill-opacity:0"
         transform="matrix(10.353338,0,0,10.353338,-566.60484,-1305.0149)" />
    </g>
  </g>
  <metadata
     id="metadata18511">
    <rdf:RDF>
      <cc:Work
         rdf:about="">
        <dc:creator>
          <cc:Agent>
            <dc:title>Sumukh Prasad</dc:title>
          </cc:Agent>
        </dc:creator>
        <dc:rights>
          <cc:Agent>
            <dc:title>© Sumukh Prasad, All Rights Reserved.</dc:title>
          </cc:Agent>
        </dc:rights>
        <dc:title>Sherlock Logo</dc:title>
      </cc:Work>
    </rdf:RDF>
  </metadata>
</svg>
